<?xml version="1.0" encoding="UTF-8"?>
<svg width="270px" height="31px" viewBox="0 0 270 31" version="1.1" xmlns="http://www.w3.org/2000/svg" xmlns:xlink="http://www.w3.org/1999/xlink">
    <!-- Generator: Sketch 59.1 (86144) - https://sketch.com -->
    <title>Mercator_logo</title>
    <desc>Created with Sketch.</desc>
    <g id="OK" stroke="none" stroke-width="1" fill="none" fill-rule="evenodd">
        <g id="A2-/-Akcija---detajl-/-podrobnost" transform="translate(-230.000000, -80.000000)">
            <g id="Mercator_logo" transform="translate(230.000000, 80.000000)">
                <g>
                    <rect id="Rectangle" fill="#FFFFFF" fill-rule="nonzero" x="7.28306304e-13" y="3.55271368e-15" width="29.9" height="29.9"></rect>
                    <g id="Group" fill-rule="nonzero">
                        <path d="M29.7,7.5 L24,13.2 C23.7,13.5 23.3,13.5 23.1,13.2 L20.4,10.5 C20.2,10.3 20,10.3 19.8,10.5 C19.7,10.6 19.7,10.7 19.7,10.8 L19.7,17.7 C19.7,17.8 19.7,17.9 19.6,18 C19.4,18.2 19.2,18.2 19,18 L11.8,10.8 C11.7,10.7 11.6,10.5 11.6,10.3 L11.6,5.3 C11.6,5 11.7,4.6 12,4.3 L16.2,3.55271368e-15 L1.45483625e-12,3.55271368e-15 L1.45483625e-12,16.2 L4.3,12 C4.6,11.7 4.9,11.6 5.3,11.6 L10.3,11.6 C10.5,11.6 10.6,11.7 10.8,11.8 L18,19 C18.2,19.2 18.2,19.4 18,19.6 C17.9,19.7 17.8,19.7 17.7,19.7 L10.8,19.7 C10.7,19.7 10.6,19.7 10.5,19.8 C10.3,20 10.3,20.2 10.5,20.4 L13.2,23.1 C13.5,23.4 13.5,23.8 13.2,24 L7.5,29.7 C7.4,29.8 7.3,29.8 7.2,29.9 L29.8,29.9 L29.8,7.3 C29.8,7.3 29.8,7.4 29.7,7.5" id="Path" fill="#DF134C"></path>
                        <path d="M29.7,6.5 C29.8,6.6 29.8,6.6 29.8,6.7 L29.8,1.33226763e-15 L23.1,1.33226763e-15 L29.7,6.5 Z" id="Path" fill="#DF134C"></path>
                        <path d="M6.6,29.7 L1.45528034e-12,23.1 L1.45528034e-12,29.8 L6.8,29.8 C6.7,29.8 6.6,29.8 6.6,29.7" id="Path" fill="#DF134C"></path>
                        <path d="M115.9,15.6 C115.9,13.6 115.4,11.8 113,11.8 C110.7,11.8 110.1,13.6 110.1,15.6 L115.9,15.6 L115.9,15.6 Z M125.7,22.2 C125.9,24.3 123.9,27.6 121.2,29 C118.4,30.4 115.2,30.6 112.7,30.6 C102.3,30.6 99.9,25.8 99.9,18.6 C99.9,11.3 102.9,6.6 113.2,6.6 C124,6.6 125.7,11.1 125.7,19.8 L110.2,19.8 C110.2,24.6 110.7,25.1 113.1,25.1 C115.1,25.1 115.7,24.2 115.9,22.3 L125.7,22.3 L125.7,22.2 Z" id="Shape" fill="#58585A"></path>
                        <path d="M128.2,7.1 L138.7,7.1 L138.7,11.9 L138.8,11.9 C140.3,8.3 143.7,6.4 147.6,6.4 L147.6,17.4 C146.5,16.9 145.3,16.6 144.1,16.6 C141,16.6 139,18.8 139,21.2 L139,29.8 L128.2,29.8 L128.2,7.1 Z" id="Path" fill="#58585A"></path>
                        <path d="M249.9,7.1 L260.4,7.1 L260.4,11.9 L260.5,11.9 C262,8.3 265.4,6.4 269.3,6.4 L269.3,17.4 C268.2,16.9 267,16.6 265.8,16.6 C262.7,16.6 260.7,18.8 260.7,21.2 L260.7,29.8 L249.9,29.8 L249.9,7.1 L249.9,7.1 Z" id="Path" fill="#58585A"></path>
                        <path d="M159.8,22.3 C159.8,23.8 160.5,24.4 161.9,24.4 C163.3,24.4 164,23.8 164,22.3 L164,20.6 L174,20.6 C173.8,24.8 172.2,30.5 161.9,30.6 C151.7,30.6 149,26.8 149,18.5 C149,10.2 151.7,6.4 161.9,6.4 C172,6.4 173.7,11 174,16 L164,16 L164,14.7 C164,13.2 163.3,12.6 161.9,12.6 C160.5,12.6 159.8,13.2 159.8,14.7 L159.8,22.3 Z" id="Path" fill="#58585A"></path>
                        <path d="M190.8,18.4 L190.8,18.4 C189.5,20.5 185.4,19.7 185.4,22.8 C185.4,24 186.6,24.9 187.8,24.9 C189.8,24.9 190.9,23.2 190.9,19.8 L190.9,18.4 L190.8,18.4 Z M176.7,14.3 C177.1,8 181.3,6.4 188,6.4 C195.9,6.4 200.4,8.8 200.4,14.2 L200.4,25.9 C200.4,27.5 200.8,29 202.2,29.7 L202.2,29.8 L191.3,29.8 C191,28.8 190.7,26.6 190.7,25.5 L190.6,25.5 C189.6,29 185.8,30.4 182.5,30.4 C177.3,30.4 175.5,27.2 175.5,23.9 C175.5,12.3 190.6,18.9 190.6,13.9 C190.6,12.5 189.6,11.7 188.3,11.7 C186.7,11.7 185.5,12.3 185.5,14.1 L176.7,14.1 L176.7,14.3 Z" id="Shape" fill="#58585A"></path>
                        <path d="M204.8,7.1 L204.8,2.1 L215.8,2.1 L215.8,7.1 L220.2,7.1 L220.2,12.1 L215.8,12.1 L215.8,21.6 C215.8,23.2 216.9,24.4 218.1,24.4 L220.2,24.4 L220.2,29.8 L209.5,29.8 C206.4,29.8 204.8,27.5 204.8,25.2 L204.8,12.1 L202.6,12.1 L202.6,7.1 L204.8,7.1 Z" id="Path" fill="#58585A"></path>
                        <path d="M232.4,22.3 C232.4,23.6 233.2,24.2 234.5,24.2 C235.8,24.2 236.6,23.6 236.6,22.3 L236.6,14.6 C236.6,13.3 235.8,12.7 234.5,12.7 C233.2,12.7 232.4,13.3 232.4,14.6 L232.4,22.3 Z M221.6,18.5 C221.6,8.5 226.3,6.5 234.4,6.5 C242.5,6.5 247.2,8.5 247.2,18.5 C247.2,28.5 242.5,30.5 234.4,30.5 C226.3,30.5 221.6,28.5 221.6,18.5 L221.6,18.5 Z" id="Shape" fill="#58585A"></path>
                        <polygon id="Path" fill="#58585A" points="81.5 3.55271368e-15 78.6 17.9 78.5 17.9 76 3.55271368e-15 59.7 3.55271368e-15 59.7 29.9 69.2 29.9 69.2 8.1 73.4 29.9 83.7 29.9 87.9 8.1 87.9 29.9 97.4 29.9 97.4 3.55271368e-15"></polygon>
                    </g>
                </g>
            </g>
        </g>
    </g>
</svg>