<?xml version="1.0" encoding="utf-8"?>
<!-- Generator: Adobe Illustrator 24.2.1, SVG Export Plug-In . SVG Version: 6.00 Build 0)  -->
<svg version="1.1" id="svg2" xmlns:svg="http://www.w3.org/2000/svg"
	 xmlns="http://www.w3.org/2000/svg" xmlns:xlink="http://www.w3.org/1999/xlink" x="0px" y="0px" viewBox="0 0 1013.95 161.11"
	 style="enable-background:new 0 0 1013.95 161.11;" xml:space="preserve">
<style type="text/css">
	.st0{fill:#EC1B24;}
	.st1{fill:#FFFFFF;}
	.st2{fill:#157946;}
</style>
<path id="path46293" class="st0" d="M0,3.09l810.16-0.01v154.84L0,157.93V3.09"/>
<path id="path46321" class="st1" d="M575.91,30.93c6.97,0,11.29,2.57,17.81,10.9l48.48,69.37c2.58,3.63,2.33,9.42-2.12,13.18
	c-3.94,3.33-10.91,3.63-14.69-1.36l-11.6-16.05h-76.36l-11.59,16.35c-4.09,4.85-9.09,4.85-13.63,1.82
	c-4.72-3.15-5.92-9.24-3.03-13.48l48.93-69.82C564.33,33.2,569.25,30.93,575.91,30.93z M578.81,56.6c-1.28-1.87-1.75-2.05-3.11-2.05
	c-1.52,0-2.12,0.76-3.15,2.14c-1.67,2.23-21.11,30.88-21.33,30.88h49.09C600.21,87.57,581.52,60.61,578.81,56.6"/>
<path id="path46349" class="st1" d="M245.25,31.05h69.84c17.33,0,18.92,19.94,18.92,19.94h-85.92c-4.25,0-8.2,3.21-8.2,8.8
	c0,6.37,4.84,9.4,7.9,9.4h60.72c12.03,0,29.15,10.02,29.15,27.32c0,22.46-19.89,30.44-26.81,30.44h-71.04
	c-21.11,0-19.94-20.13-19.94-20.13h88.05c3.52,0,8.71-3.49,8.71-8.71c0-4.98-4.55-8.8-7.9-8.8h-59.5
	c-16.88,0-29.96-12.53-29.96-29.53C219.24,40.66,235.65,31.05,245.25,31.05"/>
<path id="path46377" class="st1" d="M692.88,30.92H765c10.93,0,27.88,8.93,27.88,30.29v1.36c0,11.37-7.12,21.36-17.12,26.2
	c0,0,0.72,1.09,16.21,22.11c2.01,2.72,2.12,9.24-2.27,13.18c-4.19,3.76-11.17,4.23-14.69,0.15c-4.92-5.69-10.61-13.18-26.21-33.01
	h-28.18c-8.03,0-18.93-6.37-18.93-20.45h60.9c3.31-0.14,8.61-3.31,8.61-9.53c0-5.75-5.1-9.7-8.64-9.7h-67.26l0.05,63.75
	c0.01,6.96-5.33,11.65-11.08,11.65c-5.46,0-10.9-4.84-10.9-11.36V50.61C673.35,39.69,684.86,30.92,692.88,30.92"/>
<path id="path46405" class="st1" d="M395.66,31.08h72.12c10.93,0,27.88,8.94,27.88,30.29v1.36c0,11.38-7.12,21.36-17.12,26.2
	c0,0-5.17,1.67-10.02,2.28h-45.3c-8.03,0-18.33-6.51-18.33-20.6h60.29c3.31-0.14,8.78-3.01,8.78-9.23c0-5.75-5.1-9.7-8.64-9.7
	l-67.25-0.01l0.04,63.76c0.01,6.96-5.33,11.65-11.08,11.65c-5.46,0-10.9-4.84-10.9-11.36V50.77
	C376.12,39.85,387.63,31.08,395.66,31.08"/>
<path id="path46433" class="st2" d="M848.77,82.59c0,29.71,14.96,56.32,41.32,69.34c24.77,12.24,57.78,12.24,82.62,0
	c24.5-12.07,41.24-39.62,41.24-69.34c0-45.45-36.36-82.59-82.59-82.59C884.91,0,848.77,36.85,848.77,82.59"/>
<path id="path46461" class="st1" d="M931.4,21.41c-8.31,28.18-33.08,69.48-51.15,89.73h42.84l0.1,12.27
	c-0.1,6.96-5.63,14.18-13.68,14.08c-11.19-0.13-25.18-5.3-33.63-19.65c-6.16-10.47-10.63-18.72-10.63-35.25
	c0-36.13,29.1-66.06,66.12-66.06c36.61,0,66.12,30.81,66.12,66.06c0,16.54-7.72,30.84-10.27,34.96
	c-9.04,14.64-22.8,19.81-33.46,19.94c-7.35,0.09-14.12-5.3-14.12-14.12v-12.24h43.5C964.41,90.89,939.64,49.6,931.4,21.41"/>
</svg>
