<?xml version="1.0" encoding="UTF-8" standalone="no"?>
<!-- Created with Inkscape (http://www.inkscape.org/) -->

<svg
   version="1.1"
   id="svg2"
   width="212.44444"
   height="212"
   viewBox="0 0 212.44444 212"
   sodipodi:docname="tus.svg"
   inkscape:version="1.2-dev (1:1.0+devel+202111022031+865cea5ab9)"
   xmlns:inkscape="http://www.inkscape.org/namespaces/inkscape"
   xmlns:sodipodi="http://sodipodi.sourceforge.net/DTD/sodipodi-0.dtd"
   xmlns="http://www.w3.org/2000/svg"
   xmlns:svg="http://www.w3.org/2000/svg">
  <defs
     id="defs6" />
  <sodipodi:namedview
     id="namedview4"
     pagecolor="#ffffff"
     bordercolor="#666666"
     borderopacity="1.0"
     inkscape:pageshadow="2"
     inkscape:pageopacity="0.0"
     inkscape:pagecheckerboard="0"
     inkscape:blackoutopacity="0.0"
     showgrid="false"
     inkscape:zoom="2.0203579"
     inkscape:cx="37.617097"
     inkscape:cy="132.89724"
     inkscape:window-width="1920"
     inkscape:window-height="1056"
     inkscape:window-x="1"
     inkscape:window-y="0"
     inkscape:window-maximized="1"
     inkscape:current-layer="g8" />
  <g
     inkscape:groupmode="layer"
     inkscape:label="Image"
     id="g8">
    <rect
       style="fill:#ffde00;fill-opacity:1;stroke-width:7.55906;stroke-linecap:round;stroke-linejoin:round"
       id="rect13481"
       width="201.05646"
       height="200.63583"
       x="5.693994"
       y="5.6820822" />
    <path
       style="fill:#00813c;stroke-width:1;fill-opacity:1"
       d="M 0,106 V 0 H 106.22222 212.44444 V 106 212 H 106.22222 0 Z m 115.99855,80.22887 c 6.60944,-1.90323 11.20591,-5.41206 13.96315,-10.65909 2.77666,-5.28398 2.91082,-6.64796 2.91947,-29.68089 l 0.008,-20.55556 h -9.53388 -9.53388 l -0.13279,19.44444 c -0.12713,18.61668 -0.1722,19.52959 -1.05866,21.44445 -3.45806,7.46988 -13.469251,7.63237 -16.895389,0.27423 l -1.058942,-2.27423 -0.0043,-19.44445 -0.0043,-19.44444 h -9.80832 -9.807955 L 75.226883,147 c 0.148662,18.28782 0.28788,22.03876 0.892742,24.0527 2.835698,9.44174 9.322769,14.50115 20.54704,16.02508 5.244715,0.71209 15.470335,0.26306 19.331885,-0.84891 z m -60.864484,-0.24371 c 3.803182,-0.78695 6.696524,-1.76711 9.977044,-3.37988 4.871093,-2.39472 4.707515,-1.81315 2.228511,-7.92312 -1.18744,-2.92667 -2.306476,-5.55986 -2.486747,-5.85155 -0.243804,-0.39448 -0.878898,-0.29383 -2.479209,0.39292 -5.371484,2.30506 -9.956986,2.12084 -11.886773,-0.47755 -0.892902,-1.20226 -0.936653,-1.83963 -1.06016,-15.44444 l -0.128817,-14.19043 h 6.860675 6.86068 l 1.661146,-4.33334 c 0.913632,-2.38333 2.120285,-5.48333 2.681454,-6.88888 l 1.020302,-2.55556 H 58.85775 49.333332 v -10.04755 c 0,-7.85351 -0.121315,-10.00179 -0.555555,-9.83799 -0.643676,0.2428 -13.871653,4.01639 -16.655725,4.75143 l -1.877947,0.49581 -0.122053,7.20804 -0.122053,7.20804 -5.666666,0.12439 -5.666667,0.12439 v 6.86233 6.86233 l 5.666667,0.12439 5.666666,0.12439 0.222223,19.11111 c 0.216624,18.62968 0.246878,19.1572 1.200978,20.94065 2.266551,4.23676 5.53501,6.47544 10.588628,7.25252 3.143211,0.48332 9.053411,0.18946 13.122238,-0.65245 z m 118.421484,-0.056 c 6.76552,-1.49916 12.18072,-5.27651 14.70225,-10.25551 1.22816,-2.42509 1.29775,-2.86044 1.29775,-8.11807 0,-5.16332 -0.0864,-5.73157 -1.22435,-8.04866 -2.59751,-5.2892 -7.88357,-8.76598 -18.91907,-12.44358 -5.61248,-1.87037 -8.0788,-3.3981 -8.0788,-5.00434 0,-0.37184 0.48255,-1.23723 1.07233,-1.92308 1.00506,-1.16877 1.32612,-1.25676 5.11775,-1.40259 2.22498,-0.0856 5.37723,0.0763 7.00501,0.35982 2.41129,0.4199 9.1212,2.39989 11.58269,3.41786 0.43241,0.17883 0.55555,-1.54797 0.55555,-7.79006 v -8.01982 l -2.33333,-0.69707 c -6.9554,-2.07787 -19.1123,-2.69216 -25.35671,-1.28127 -6.97822,1.57668 -12.11577,5.3374 -14.67689,10.74359 -1.29285,2.72902 -1.41084,3.35059 -1.41084,7.43188 0,4.13685 0.10395,4.66495 1.46077,7.42105 2.5311,5.14139 6.25815,7.67169 16.53923,11.22853 6.78453,2.34718 9.18223,3.6954 9.61114,5.40433 1.31205,5.2276 -7.06372,7.41655 -16.59721,4.33758 -1.23508,-0.39889 -3.81848,-1.56348 -5.74088,-2.58799 l -3.49528,-1.86275 -2.77777,6.44914 c -1.52778,3.54702 -2.77778,6.72122 -2.77778,7.05378 0,0.90935 6.91487,3.96705 11.35745,5.02216 7.65642,1.81839 16.45867,2.03384 23.08699,0.56507 z m -14.10298,-76.01627 8.11924,-5.90362 9.4274,6.85614 c 5.18507,3.77088 9.49906,6.78449 9.58665,6.69691 0.12527,-0.12527 -5.91378,-19.293728 -6.83417,-21.692212 -0.13713,-0.357382 3.36948,-3.168533 9.28608,-7.444369 l 9.50643,-6.870155 -11.77739,-0.222222 -11.77738,-0.222223 -3.57658,-10.999999 c -1.96712,-6.05 -3.69969,-11 -3.85015,-11 -0.15045,0 -1.86945,4.95 -3.81997,11 l -3.54641,10.999999 -11.75957,0.222223 -11.75956,0.222222 8.6614,6.300884 c 4.76378,3.465489 9.00923,6.565489 9.43435,6.888889 0.71985,0.547609 0.52964,1.336035 -2.76881,11.476893 -1.94796,5.98889 -3.54578,11.05251 -3.55072,11.25248 -0.0105,0.42746 0.39369,0.14955 10.99916,-7.56184 z"
       id="path1140" />
  </g>
</svg>
